<svg xmlns="http://www.w3.org/2000/svg" width="800" height="600" viewBox="0 0 800 600">
  <rect width="800" height="600" fill="#f0fdf4"/>
  <rect x="40" y="40" width="220" height="280" rx="12" fill="#dcfce7" stroke="#86efac" stroke-width="1.5"/>
  <rect x="60" y="64" width="140" height="14" rx="3" fill="#86efac"/>
  <rect x="60" y="92" width="160" height="10" rx="3" fill="#bbf7d0"/>
  <rect x="60" y="114" width="120" height="10" rx="3" fill="#bbf7d0"/>
  <rect x="60" y="136" width="140" height="10" rx="3" fill="#bbf7d0"/>
  <rect x="60" y="158" width="100" height="10" rx="3" fill="#bbf7d0"/>
  <rect x="60" y="180" width="130" height="10" rx="3" fill="#bbf7d0"/>
  <rect x="60" y="202" width="110" height="10" rx="3" fill="#bbf7d0"/>
  <rect x="290" y="40" width="220" height="280" rx="12" fill="#dcfce7" stroke="#86efac" stroke-width="1.5"/>
  <rect x="310" y="64" width="140" height="14" rx="3" fill="#86efac"/>
  <rect x="310" y="92" width="160" height="10" rx="3" fill="#bbf7d0"/>
  <rect x="310" y="114" width="120" height="10" rx="3" fill="#bbf7d0"/>
  <rect x="310" y="136" width="140" height="10" rx="3" fill="#bbf7d0"/>
  <rect x="310" y="158" width="100" height="10" rx="3" fill="#bbf7d0"/>
  <rect x="540" y="40" width="220" height="280" rx="12" fill="#dcfce7" stroke="#86efac" stroke-width="1.5"/>
  <rect x="560" y="64" width="140" height="14" rx="3" fill="#86efac"/>
  <rect x="560" y="92" width="160" height="10" rx="3" fill="#bbf7d0"/>
  <rect x="560" y="114" width="120" height="10" rx="3" fill="#bbf7d0"/>
  <rect x="560" y="136" width="140" height="10" rx="3" fill="#bbf7d0"/>
  <rect x="200" y="380" width="400" height="60" rx="30" fill="#16a34a"/>
  <text x="400" y="418" text-anchor="middle" font-family="sans-serif" font-size="18" font-weight="600" fill="white">✓ Ready for shipment</text>
</svg>
